<?xml version="1.0" encoding="utf-8"?>
<!-- Generator: Adobe Illustrator 19.1.0, SVG Export Plug-In . SVG Version: 6.00 Build 0)  -->
<svg version="1.1" id="아이콘" xmlns="http://www.w3.org/2000/svg" xmlns:xlink="http://www.w3.org/1999/xlink" x="0px" y="0px"
	 viewBox="-271 367 68 60" enable-background="new -271 367 68 60" xml:space="preserve">
<g>
	<path fill="#FF746D" stroke="#FF746D" stroke-width="0.2" stroke-miterlimit="10" d="M-244.806,414.136
		c-0.057,0-0.164,0.003-0.321,0.008s-0.32,0.007-0.491,0.007c-0.171,0-0.328,0.003-0.471,0.008
		c-0.142,0.005-0.233,0.008-0.271,0.008c-0.181,0.01-0.326-0.029-0.435-0.118c-0.109-0.089-0.173-0.203-0.192-0.341
		c-0.019-0.168,0.019-0.323,0.114-0.467c0.095-0.143,0.28-0.215,0.556-0.215c0.047,0,0.106-0.002,0.178-0.007
		s0.154-0.008,0.25-0.008c0.218-0.01,0.475-0.018,0.77-0.022s0.586-0.01,0.876-0.015c0.29-0.005,0.563-0.01,0.819-0.016
		c0.256-0.005,0.456-0.012,0.599-0.022c0.475-0.02,0.786,0.055,0.933,0.223s0.183,0.498,0.107,0.992
		c-0.095,0.61-0.269,1.195-0.52,1.756c-0.252,0.56-0.573,1.082-0.962,1.567c-0.39,0.484-0.841,0.935-1.354,1.35
		c-0.513,0.415-1.078,0.782-1.695,1.103c-0.057,0.03-0.126,0.058-0.207,0.082c-0.081,0.025-0.162,0.035-0.242,0.03
		s-0.157-0.027-0.228-0.067s-0.126-0.115-0.164-0.225c-0.048-0.15-0.045-0.295,0.007-0.436c0.052-0.14,0.15-0.25,0.292-0.33
		c0.379-0.22,0.764-0.475,1.154-0.765s0.75-0.622,1.083-0.997s0.627-0.803,0.884-1.283c0.256-0.479,0.446-1.024,0.57-1.635
		c0.009-0.03,0.017-0.07,0.021-0.12s-0.05-0.075-0.164-0.075c-0.162,0-0.361,0.003-0.598,0.008
		C-244.146,414.118-244.445,414.126-244.806,414.136z M-238.379,424.98c-0.01,0.26-0.079,0.45-0.207,0.57
		c-0.128,0.12-0.297,0.185-0.506,0.195c-0.409,0.02-0.725,0.034-0.948,0.045c-0.223,0.01-0.43,0.015-0.62,0.015
		c-0.19,0-0.404,0-0.642,0s-0.57,0-0.998,0h-1.738c-0.418,0-0.725-0.072-0.919-0.218c-0.195-0.145-0.292-0.427-0.292-0.847
		c0-0.251,0.002-0.54,0.007-0.87c0.004-0.33,0.007-0.665,0.007-1.005v-1.65c0-0.25,0.076-0.415,0.228-0.495s0.328-0.12,0.527-0.12
		h2.508c0.456,0,0.917,0,1.382,0c0.466,0,0.941-0.005,1.425-0.015c0.561-0.021,0.831,0.23,0.812,0.75v1.47
		c0,0.4-0.002,0.803-0.007,1.208C-238.363,424.418-238.37,424.741-238.379,424.98z M-243.908,424.426
		c0,0.08,0.009,0.138,0.028,0.173c0.019,0.034,0.071,0.052,0.157,0.052c0.275,0,0.525,0.003,0.748,0.008s0.444,0.008,0.663,0.008
		c0.39,0,0.784-0.006,1.183-0.016c0.399-0.01,0.898-0.024,1.497-0.045v-2.55c0-0.09-0.012-0.155-0.036-0.195
		c-0.024-0.039-0.079-0.06-0.164-0.06c-0.323,0.01-0.717,0.015-1.183,0.015c-0.466,0-0.907,0-1.325,0
		c-0.342,0-0.632,0.003-0.869,0.008c-0.238,0.005-0.466,0.008-0.684,0.008c-0.01,0.39-0.014,0.819-0.014,1.29
		C-243.908,423.591-243.908,424.025-243.908,424.426z M-239.605,412.831c0-0.17,0.05-0.315,0.15-0.436
		c0.1-0.12,0.226-0.189,0.377-0.21c0.171-0.02,0.337,0.021,0.499,0.12c0.162,0.101,0.243,0.25,0.243,0.45
		c-0.01,0.51-0.015,1-0.015,1.47c0,0.471,0,0.965,0,1.483c0,0.503,0.002,1.06,0.007,1.668c0.005,0.609-0.002,1.254-0.021,1.934
		c-0.009,0.2-0.076,0.357-0.199,0.473c-0.124,0.115-0.262,0.173-0.414,0.173c-0.181,0-0.335-0.058-0.463-0.173
		c-0.128-0.115-0.188-0.287-0.178-0.518c0.028-0.84,0.043-1.685,0.043-2.535h-0.841c-0.152,0-0.321,0-0.506,0
		c-0.186,0-0.321-0.005-0.406-0.015c-0.162-0.02-0.292-0.074-0.392-0.163c-0.1-0.089-0.149-0.231-0.149-0.43
		c0-0.197,0.05-0.346,0.149-0.444c0.1-0.099,0.235-0.147,0.406-0.147h1.739c-0.01-0.54-0.017-1.043-0.021-1.508
		C-239.602,413.559-239.605,413.161-239.605,412.831z"/>
	<path fill="#FF746D" stroke="#FF746D" stroke-width="0.2" stroke-miterlimit="10" d="M-235.786,419.73
		c-0.076,0.061-0.154,0.11-0.235,0.15c-0.081,0.04-0.159,0.065-0.235,0.075s-0.149-0.003-0.221-0.038
		c-0.071-0.034-0.135-0.103-0.192-0.202c-0.095-0.17-0.114-0.317-0.057-0.442c0.057-0.125,0.138-0.242,0.242-0.353
		c0.627-0.67,1.124-1.39,1.49-2.16c0.365-0.77,0.596-1.575,0.691-2.415c0.018-0.15,0.033-0.292,0.042-0.428
		c0.009-0.135,0.015-0.332,0.015-0.592c0-0.25,0.07-0.423,0.213-0.518c0.143-0.096,0.29-0.143,0.442-0.143
		c0.181,0,0.337,0.05,0.47,0.149c0.133,0.101,0.199,0.275,0.199,0.525c0,0.43-0.016,0.787-0.049,1.072s-0.074,0.543-0.121,0.772
		c-0.02,0.08-0.039,0.16-0.057,0.24c-0.02,0.08-0.039,0.16-0.058,0.24c0.342,0.63,0.685,1.17,1.026,1.62
		c0.342,0.449,0.664,0.864,0.969,1.245c0.104,0.13,0.171,0.287,0.199,0.472c0.028,0.186-0.01,0.333-0.113,0.442
		c-0.143,0.141-0.291,0.183-0.442,0.128c-0.152-0.055-0.323-0.178-0.513-0.367c-0.086-0.08-0.193-0.195-0.32-0.346
		c-0.129-0.149-0.27-0.319-0.421-0.51c-0.152-0.189-0.312-0.393-0.478-0.607s-0.326-0.433-0.478-0.652
		c-0.304,0.61-0.644,1.146-1.019,1.604C-235.17,419.156-235.5,419.501-235.786,419.73z M-233.506,422.146
		c-0.123,0-0.225-0.017-0.307-0.052c-0.08-0.035-0.145-0.083-0.191-0.143c-0.048-0.061-0.084-0.125-0.107-0.195
		s-0.035-0.135-0.035-0.195c-0.02-0.399,0.176-0.609,0.584-0.63c0.171,0,0.393-0.002,0.662-0.008
		c0.271-0.005,0.568-0.01,0.891-0.015c0.323-0.005,0.663-0.008,1.02-0.008c0.355,0,0.705,0,1.047,0c0.428,0,0.822-0.002,1.184-0.007
		c0.36-0.005,0.664-0.008,0.912-0.008c0.075,0,0.166,0.008,0.27,0.022c0.105,0.015,0.207,0.053,0.307,0.112
		c0.1,0.061,0.184,0.147,0.25,0.263s0.1,0.268,0.1,0.458c-0.01,0.189-0.014,0.415-0.014,0.675s0,0.515,0,0.765
		c0,0.38-0.003,0.775-0.008,1.186c-0.005,0.409-0.017,0.765-0.035,1.064c-0.02,0.21-0.078,0.365-0.179,0.465
		c-0.1,0.101-0.259,0.155-0.478,0.165c-0.161,0.021-0.304-0.037-0.428-0.172c-0.123-0.136-0.189-0.328-0.199-0.578
		c0.01-0.26,0.017-0.56,0.021-0.899c0.005-0.341,0.008-0.655,0.008-0.945c0-0.2-0.003-0.385-0.008-0.555s-0.007-0.37-0.007-0.601
		c0-0.06-0.019-0.112-0.058-0.157c-0.037-0.045-0.104-0.067-0.199-0.067c-0.189,0-0.38,0.002-0.57,0.008
		c-0.189,0.005-0.398,0.007-0.627,0.007c-0.228,0-0.521,0.003-0.883,0.008s-0.729,0.01-1.104,0.015
		c-0.376,0.006-0.729,0.011-1.062,0.016C-233.083,422.144-233.334,422.146-233.506,422.146z M-230.498,412.966
		c-0.01-0.21,0.049-0.367,0.178-0.473c0.128-0.104,0.273-0.157,0.435-0.157c0.151,0,0.292,0.048,0.421,0.143
		c0.127,0.095,0.196,0.228,0.206,0.397c0.009,0.32,0.019,0.652,0.028,0.997c0.01,0.346,0.014,0.708,0.014,1.088
		c0,0.09,0.003,0.183,0.008,0.277c0.004,0.095,0.007,0.192,0.007,0.293h1.169c-0.01-0.45-0.018-0.902-0.021-1.358
		c-0.005-0.454-0.017-0.922-0.035-1.402c-0.01-0.199,0.055-0.35,0.191-0.45c0.139-0.1,0.287-0.149,0.449-0.149
		c0.143,0,0.275,0.045,0.398,0.135c0.124,0.09,0.195,0.22,0.215,0.39c0.009,0.061,0.012,0.143,0.007,0.248
		c-0.005,0.104-0.007,0.218-0.007,0.338c0,0.119,0.002,0.217,0.007,0.292s0.007,0.173,0.007,0.293c0,0.119,0.002,0.282,0.008,0.487
		c0.004,0.205,0.006,0.497,0.006,0.877c0,0.69-0.004,1.413-0.014,2.168s-0.014,1.468-0.014,2.138c0,0.2-0.069,0.362-0.207,0.487
		s-0.287,0.183-0.449,0.172c-0.161-0.02-0.297-0.09-0.406-0.21c-0.109-0.119-0.164-0.274-0.164-0.465
		c0-0.46,0.003-0.932,0.008-1.417c0.004-0.485,0.012-0.953,0.021-1.402h-1.126h-0.043c0.01,0.26,0.015,0.512,0.015,0.757
		s0,0.482,0,0.713c0,0.25,0,0.468,0,0.652c0,0.186-0.005,0.393-0.015,0.622c-0.009,0.171-0.069,0.318-0.178,0.443
		c-0.109,0.125-0.24,0.197-0.392,0.217c-0.172,0.021-0.321-0.032-0.449-0.157c-0.129-0.125-0.197-0.298-0.207-0.518
		c0.01-0.3,0.015-0.6,0.015-0.899c0-0.301,0-0.591,0-0.87c0-0.76-0.01-1.521-0.028-2.28
		C-230.461,414.621-230.48,413.815-230.498,412.966z"/>
</g>
<g>
	<path fill="#FF746D" d="M-240.074,400.233c-0.118,0-0.236-0.002-0.355-0.005c-6.577-0.175-13.18-5.351-15.032-11.784l0,0
		c-2.259-7.846,2.682-15.076,8.477-17.896c4.831-2.351,11.842-2.3,17.032,4.887c3.632,5.028,4.096,12.152,1.153,17.727
		C-231.181,397.67-235.276,400.233-240.074,400.233z M-254.021,388.029c1.654,5.744,7.769,10.543,13.63,10.699
		c4.37,0.117,8.102-2.169,10.264-6.267c2.683-5.082,2.264-11.571-1.043-16.148c-3.945-5.463-9.612-7.114-15.159-4.416
		C-251.574,374.449-256.053,380.971-254.021,388.029L-254.021,388.029z"/>
	<path fill="#FF746D" d="M-218.729,401.847c-0.174,0-0.349-0.061-0.49-0.183l-9.881-8.547c-0.313-0.271-0.348-0.745-0.077-1.058
		c0.271-0.314,0.745-0.348,1.058-0.077l9.881,8.547c0.313,0.271,0.348,0.745,0.077,1.058
		C-218.31,401.759-218.519,401.847-218.729,401.847z"/>
</g>
</svg>
