<?xml version="1.0" encoding="utf-8"?>
<!-- Generator: Adobe Illustrator 19.1.0, SVG Export Plug-In . SVG Version: 6.00 Build 0)  -->
<svg version="1.1" id="아이콘" xmlns="http://www.w3.org/2000/svg" xmlns:xlink="http://www.w3.org/1999/xlink" x="0px" y="0px"
	 viewBox="0 0 34 33" enable-background="new 0 0 34 33" xml:space="preserve">
<g>
	<path fill="#FF746D" d="M14.228,27.359c-3.487,0-6.778-1.333-9.288-3.766c-2.561-2.481-4.001-5.812-4.057-9.378
		c-0.055-3.565,1.281-6.94,3.764-9.501c2.482-2.56,5.813-4.001,9.378-4.057c3.598-0.053,6.941,1.281,9.501,3.763
		c5.286,5.124,5.417,13.593,0.294,18.879l0,0c-2.483,2.561-5.814,4.002-9.38,4.057C14.369,27.358,14.298,27.359,14.228,27.359z
		 M14.238,2.656c-0.061,0-0.122,0-0.182,0.001c-3.032,0.047-5.864,1.272-7.974,3.448c-2.11,2.178-3.247,5.047-3.2,8.079
		c0.047,3.031,1.272,5.863,3.449,7.973c2.177,2.111,5.062,3.229,8.077,3.201c3.032-0.047,5.864-1.272,7.976-3.45l0,0
		c4.356-4.494,4.244-11.695-0.25-16.052C20.001,3.788,17.203,2.656,14.238,2.656z"/>
	<path fill="#FF746D" d="M32.119,32.345c-0.251,0-0.502-0.094-0.696-0.282l-9.017-8.741c-0.397-0.384-0.407-1.017-0.022-1.414
		c0.384-0.397,1.018-0.407,1.414-0.022l9.017,8.741c0.397,0.384,0.407,1.017,0.022,1.414C32.641,32.243,32.38,32.345,32.119,32.345z
		"/>
</g>
</svg>
