<svg xmlns:dc="http://purl.org/dc/elements/1.1/" xmlns:cc="http://creativecommons.org/ns#" xmlns:rdf="http://www.w3.org/1999/02/22-rdf-syntax-ns#" xmlns:svg="http://www.w3.org/2000/svg" xmlns="http://www.w3.org/2000/svg" xmlns:sodipodi="http://sodipodi.sourceforge.net/DTD/sodipodi-0.dtd" xmlns:inkscape="http://www.inkscape.org/namespaces/inkscape" version="1.1" x="0px" y="0px" viewBox="0 0 100 125"><g transform="translate(0,-952.36218)"><path style="text-indent:0;text-transform:none;direction:ltr;block-progression:tb;baseline-shift:baseline;color:#000000;enable-background:accumulate;" d="m 9.9999999,967.36217 c -3.28936,0 -6,2.71056 -6,6 l 0,62.00003 a 2.0002,2.0002 0 0 0 2,2 l 88.0000001,0 a 2.0002,2.0002 0 0 0 2,-2 l 0,-62.00003 c 0,-3.28944 -2.71064,-6 -6,-6 l -80.0000001,0 z m 0,4 80.0000001,0 c 1.1427,0 2,0.85724 2,2 l 0,12.00002 -84.0000001,0 0,-12.00002 c 0,-1.14276 0.8573,-2 2,-2 z m 5.0000001,4 c -1.65686,0 -3,1.3431 -3,3.00002 0,1.6568 1.34314,3 3,3 1.65685,0 3,-1.3432 3,-3 0,-1.65692 -1.34315,-3.00002 -3,-3.00002 z m 9,0 c -1.65686,0 -3,1.3431 -3,3.00002 0,1.6568 1.34314,3 3,3 1.65685,0 3,-1.3432 3,-3 0,-1.65692 -1.34315,-3.00002 -3,-3.00002 z m 9,0 c -1.65686,0 -3,1.3431 -3,3.00002 0,1.6568 1.34314,3 3,3 1.65685,0 3,-1.3432 3,-3 0,-1.65692 -1.34315,-3.00002 -3,-3.00002 z m -25.0000001,14.00002 84.0000001,0 0,44.00001 -84.0000001,0 0,-44.00001 z" fill="#555555" fill-opacity="1" stroke="none" marker="none" visibility="visible" display="inline" overflow="visible"/></g></svg>
